<svg xmlns="http://www.w3.org/2000/svg" xmlns:xlink="http://www.w3.org/1999/xlink" fill="none" version="1.1" width="270" height="270" viewBox="0 0 270 270"><defs><clipPath id="master_svg0_137_1320"><rect x="0" y="0" width="270" height="270" rx="0"/></clipPath><linearGradient x1="1.0822467803955078" y1="0.09226269274950027" x2="0.18829771876335144" y2="0.7182744741439819" id="master_svg1_137_6515"><stop offset="0%" stop-color="#BF6AFF" stop-opacity="1"/><stop offset="100%" stop-color="#11F5EF" stop-opacity="1"/></linearGradient><linearGradient x1="0.5" y1="0" x2="0.5" y2="1" id="master_svg2_137_8485"><stop offset="0%" stop-color="#FD76FF" stop-opacity="1"/><stop offset="100%" stop-color="#F85EAD" stop-opacity="1"/></linearGradient></defs><g clip-path="url(#master_svg0_137_1320)"><g><ellipse cx="135" cy="135" rx="135" ry="135" fill="#18065A" fill-opacity="1"/></g><g><path d="M119.10250359375,203.85807812500002L159.81483359375,101.423378125C164.50533359375,89.622458125,176.26783359375,81.830078125,189.39143359374998,81.830078125L213.81853359375,81.830078125C220.24893359375,81.830078125,224.68393359375,88.035438125,222.38493359375002,93.817878125L185.18023359375002,189.199078125C180.48963359375,200.99907812499998,170.38473359375,210.556078125,152.84833359375,214.082078125C135.31183359375,217.609078125,112.21963359375,221.182078125,119.10250359375,203.85807812500002Z" fill="url(#master_svg1_137_6515)" fill-opacity="1"/></g><g transform="matrix(-0.9596704244613647,0.2811275124549866,0.2811275124549866,0.9596704244613647,205.87761986866826,-29.53448833580478)"><path d="M147.57204609375,81.329591C129.96464609375,83.68215000000001,113.78462609375,95.9111,117.11576709375,120.8483Q120.15334609375,143.5879,154.05534609375002,184.324C157.13484609375,188.025,163.09244609375,187.15,164.92804609375,182.723Q180.76524609375,144.51850000000002,187.54534609375,122.7303C197.06304609375002,88.85505,165.17944609375002,78.97703,147.57204609375,81.329591Z" fill="url(#master_svg2_137_8485)" fill-opacity="1"/></g></g></svg>